<?xml version="1.0" encoding="UTF-8" standalone="no"?>
<!-- Created with Inkscape (http://www.inkscape.org/) -->

<svg
   width="164.76535mm"
   height="60.125118mm"
   viewBox="0 0 164.76535 60.125119"
   version="1.1"
   id="svg8"
   inkscape:version="1.1.2 (0a00cf5339, 2022-02-04, custom)"
   sodipodi:docname="logo_full.svg"
   xmlns:inkscape="http://www.inkscape.org/namespaces/inkscape"
   xmlns:sodipodi="http://sodipodi.sourceforge.net/DTD/sodipodi-0.dtd"
   xmlns="http://www.w3.org/2000/svg"
   xmlns:svg="http://www.w3.org/2000/svg"
   xmlns:rdf="http://www.w3.org/1999/02/22-rdf-syntax-ns#"
   xmlns:cc="http://creativecommons.org/ns#"
   xmlns:dc="http://purl.org/dc/elements/1.1/">
  <defs
     id="defs2" />
  <sodipodi:namedview
     id="base"
     pagecolor="#ffffff"
     bordercolor="#666666"
     borderopacity="1.0"
     inkscape:pageopacity="0.0"
     inkscape:pageshadow="2"
     inkscape:zoom="1.2496"
     inkscape:cx="184.45903"
     inkscape:cy="85.627401"
     inkscape:document-units="mm"
     inkscape:current-layer="text10238"
     showgrid="false"
     inkscape:window-width="1128"
     inkscape:window-height="683"
     inkscape:window-x="0"
     inkscape:window-y="0"
     inkscape:window-maximized="1"
     inkscape:pagecheckerboard="0"
     fit-margin-top="0"
     fit-margin-left="0"
     fit-margin-right="0"
     fit-margin-bottom="0"
     showguides="false" />
  <metadata
     id="metadata5">
    <rdf:RDF>
      <cc:Work
         rdf:about="">
        <dc:format>image/svg+xml</dc:format>
        <dc:type
           rdf:resource="http://purl.org/dc/dcmitype/StillImage" />
      </cc:Work>
    </rdf:RDF>
  </metadata>
  <g
     inkscape:groupmode="layer"
     id="layer2"
     inkscape:label="AT"
     style="display:inline">
    <g
       aria-label="AT"
       transform="matrix(0.26458333,0,0,0.26458333,-31.132984,-45.495766)"
       style="font-style:normal;font-variant:normal;font-weight:normal;font-stretch:normal;font-size:40px;line-height:1.25;font-family:serif;-inkscape-font-specification:serif;letter-spacing:0px;word-spacing:0px;display:inline;fill:#000000;fill-opacity:1;stroke:none"
       id="flowRoot3713">
      <path
         d="m 204.01172,259.42125 h -49.21875 l -8.625,20.0625 q -3.1875,7.40625 -3.1875,11.0625 0,2.90625 2.71875,5.15625 2.8125,2.15625 12,2.8125 v 3.46875 H 117.66797 V 298.515 q 7.96875,-1.40625 10.3125,-3.65625 4.78125,-4.5 10.59375,-18.28125 l 44.71875,-104.625 h 3.28125 l 44.25,105.75 q 5.34375,12.75 9.65625,16.59375 4.40625,3.75 12.1875,4.21875 v 3.46875 H 202.51172 V 298.515 q 7.59375,-0.375 10.21875,-2.53125 2.71875,-2.15625 2.71875,-5.25 0,-4.125 -3.75,-13.03125 z m -2.625,-6.9375 -21.5625,-51.375 -22.125,51.375 z"
         style="font-size:192px"
         id="path3721"
         inkscape:connector-curvature="0" />
      <path
         d="m 329.99386,251.64446 1.40625,29.8125 h -3.5625 c -0.6875,-5.25 -1.625,-9 -2.8125,-11.25 -1.9375,-3.625 -4.53125,-6.28125 -7.78125,-7.96875 -3.1875,-1.75 -7.40625,-2.625 -12.65625,-2.625 h -17.90625 v 97.125 c 0,7.8125 0.84375,12.6875 2.53125,14.625 2.375,2.625 6.03125,3.9375 10.96875,3.9375 h 4.40625 v 3.46875 h -53.90625 v -3.46875 h 4.5 c 5.375,0 9.1875,-1.625 11.4375,-4.875 1.375,-2 2.0625,-6.5625 2.0625,-13.6875 v -97.125 h -118.1384 c 4.25001,-0.19196 3.35773,-7.93565 3.35773,-7.93565 16.79667,0.29937 141.35171,-0.0331 176.09317,-0.0331 z"
         style="font-size:192px"
         id="path3723"
         inkscape:connector-curvature="0"
         sodipodi:nodetypes="cccccscscsccccscsccsc" />
    </g>
  </g>
  <g
     inkscape:label="Layer 1"
     inkscape:groupmode="layer"
     id="layer1"
     transform="translate(-31.132983,-45.495765)"
     style="display:inline">
    <g
       aria-label="aron"
       transform="translate(-0.88226573)"
       id="text10238"
       style="font-size:25.4px;line-height:1.25;font-family:'Liberation Serif';-inkscape-font-specification:'Liberation Serif';word-spacing:0px;white-space:pre;inline-size:65.9198;stroke-width:0.264583">
      <path
         d="m 70.424065,63.482269 c -0.4318,0.3556 -0.7366,0.4826 -1.1176,0.4826 -0.5842,0 -0.762,-0.3556 -0.762,-1.4732 v -4.953 c 0,-1.3208 -0.127,-2.0574 -0.508,-2.667 -0.558799,-0.9144 -1.650999,-1.397 -3.149599,-1.397 -2.3876,0 -4.2672,1.2446 -4.2672,2.8448 0,0.5842 0.4826,1.0922 1.0922,1.0922 0.6096,0 1.143,-0.508 1.143,-1.0668 0,-0.1016 -0.0254,-0.2286 -0.0508,-0.4064 -0.0508,-0.2286 -0.0762,-0.4318 -0.0762,-0.6096 0,-0.6858 0.8128,-1.2446 1.8288,-1.2446 1.2446,0 1.9304,0.7366 1.9304,2.1082 v 1.5494 c -3.8862,1.5494 -4.3434,1.778 -5.4356,2.7432 -0.5588,0.508 -0.9144,1.3716 -0.9144,2.2098 0,1.6002 1.1176,2.7178 2.667,2.7178 1.1176,0 2.159,-0.5334 3.7084,-1.8542 0.127,1.3462 0.5842,1.8542 1.625599,1.8542 0.8636,0 1.397,-0.3048 2.286,-1.27 z m -3.936999,-1.4478 c 0,0.762 -0.127,1.0414 -0.6604,1.3462 -0.635,0.3556 -1.3208,0.5588 -1.8542,0.5588 -0.889,0 -1.6002,-0.8636 -1.6002,-1.9558 v -0.1016 c 0.0254,-1.524 1.143,-2.4892 4.1148,-3.5306 z"
         style="font-family:'Nimbus Roman';-inkscape-font-specification:'Nimbus Roman, Normal'"
         id="path862" />
      <path
         d="m 70.601872,65.158669 h 6.096 v -0.381 c -1.7018,-0.0508 -2.1082,-0.4064 -2.159,-1.905 v -5.715 c 0,-0.8128 1.0668,-2.0828 1.778,-2.0828 0.1524,0 0.381,0.127 0.6604,0.381 0.381,0.381 0.6858,0.508 1.016,0.508 0.6096,0 0.9906,-0.4318 0.9906,-1.143 0,-0.8382 -0.5334,-1.3462 -1.397,-1.3462 -1.0668,0 -1.778,0.5588 -3.048,2.3876 v -2.3368 l -0.127,-0.0508 c -1.4224,0.5588 -2.3368,0.9144 -3.7592,1.3716 v 0.4064 c 0.3556,-0.0762 0.5842,-0.1016 0.889,-0.1016 0.635,0 0.8636,0.4064 0.8636,1.524 v 6.35 c -0.0508,1.3208 -0.2032,1.4732 -1.8034,1.7526 z"
         style="font-family:'Nimbus Roman';-inkscape-font-specification:'Nimbus Roman, Normal'"
         id="path864" />
      <path
         d="m 85.079891,53.474669 c -3.3274,0 -5.6134,2.4384 -5.6134,5.9436 0,3.4544 2.3622,5.9944 5.5626,5.9944 3.2004,0 5.6388,-2.667 5.6388,-6.1976 0,-3.3528 -2.3368,-5.7404 -5.588,-5.7404 z m -0.3302,0.7112 c 2.1336,0 3.6322,2.4384 3.6322,5.9182 0,2.8956 -1.143,4.5974 -3.048,4.5974 -0.9906,0 -1.9304,-0.6096 -2.4638,-1.6256 -0.7112,-1.3208 -1.1176,-3.0988 -1.1176,-4.9022 0,-2.413 1.1684,-3.9878 2.9972,-3.9878 z"
         style="font-family:'Nimbus Roman';-inkscape-font-specification:'Nimbus Roman, Normal'"
         id="path866" />
      <path
         d="m 91.88709,65.158669 h 5.3848 v -0.381 c -1.27,-0.0762 -1.6764,-0.4064 -1.6764,-1.3208 v -7.1374 c 1.2192,-1.143 1.778,-1.4478 2.6162,-1.4478 1.2446,0 1.8542,0.7874 1.8542,2.4638 v 5.3086 c -0.0508,1.651 -0.3556,2.0574 -1.6002,2.1336 v 0.381 h 5.2832 v -0.381 c -1.2446,-0.127 -1.524,-0.4318 -1.5494,-1.6764 v -5.8166 c 0,-2.3876 -1.1176,-3.81 -2.9972,-3.81 -1.1684,0 -1.9558,0.4318 -3.683,2.0574 v -2.0066 l -0.1778,-0.0508 c -1.3208,0.4826 -2.1844,0.762 -3.5052,1.143 v 0.4318 c 0.1778,-0.0762 0.4064,-0.1016 0.6858,-0.1016 0.7112,0 0.9398,0.381 0.9398,1.6256 v 6.2992 c -0.0254,1.4986 -0.3048,1.8288 -1.5748,1.905 z"
         style="font-family:'Nimbus Roman';-inkscape-font-specification:'Nimbus Roman, Normal'"
         id="path868" />
    </g>
    <g
       aria-label="agliaboschi"
       transform="translate(22.401076,34.925016)"
       id="text21990"
       style="font-size:25.4px;line-height:1.25;font-family:'Liberation Serif';-inkscape-font-specification:'Liberation Serif';word-spacing:0px;white-space:pre;inline-size:172.881;stroke-width:0.264583">
      <path
         d="m 70.424065,63.482269 c -0.4318,0.3556 -0.7366,0.4826 -1.1176,0.4826 -0.5842,0 -0.762,-0.3556 -0.762,-1.4732 v -4.953 c 0,-1.3208 -0.127,-2.0574 -0.508,-2.667 -0.558799,-0.9144 -1.650999,-1.397 -3.149599,-1.397 -2.3876,0 -4.2672,1.2446 -4.2672,2.8448 0,0.5842 0.4826,1.0922 1.0922,1.0922 0.6096,0 1.143,-0.508 1.143,-1.0668 0,-0.1016 -0.0254,-0.2286 -0.0508,-0.4064 -0.0508,-0.2286 -0.0762,-0.4318 -0.0762,-0.6096 0,-0.6858 0.8128,-1.2446 1.8288,-1.2446 1.2446,0 1.9304,0.7366 1.9304,2.1082 v 1.5494 c -3.8862,1.5494 -4.3434,1.778 -5.4356,2.7432 -0.5588,0.508 -0.9144,1.3716 -0.9144,2.2098 0,1.6002 1.1176,2.7178 2.667,2.7178 1.1176,0 2.159,-0.5334 3.7084,-1.8542 0.127,1.3462 0.5842,1.8542 1.625599,1.8542 0.8636,0 1.397,-0.3048 2.286,-1.27 z m -3.936999,-1.4478 c 0,0.762 -0.127,1.0414 -0.6604,1.3462 -0.635,0.3556 -1.3208,0.5588 -1.8542,0.5588 -0.889,0 -1.6002,-0.8636 -1.6002,-1.9558 v -0.1016 c 0.0254,-1.524 1.143,-2.4892 4.1148,-3.5306 z"
         style="font-family:'Nimbus Roman';-inkscape-font-specification:'Nimbus Roman, Normal'"
         id="path839" />
      <path
         d="m 82.209686,55.303469 v -0.9906 h -1.9558 c -0.5334,0 -0.889,-0.0762 -1.397,-0.254 l -0.5588,-0.2032 c -0.6604,-0.254 -1.3716,-0.381 -2.032,-0.381 -2.3622,0 -4.241799,1.8034 -4.241799,4.1402 0,1.6002 0.6604,2.5654 2.362199,3.4036 l -0.660399,0.6096 c -0.5334,0.508 -0.8382,0.7874 -0.9144,0.889 -0.5334,0.5588 -0.6858,0.8382 -0.6858,1.27 0,0.5588 0.2794,0.8382 1.3462,1.3462 -1.8288,1.320799 -2.4892,2.158999 -2.4892,3.098799 0,1.3462 1.9558,2.4638 4.394199,2.4638 1.905,0 3.8862,-0.6604 5.207,-1.7272 0.9652,-0.7874 1.397,-1.6002 1.397,-2.5654 0,-1.574799 -1.1938,-2.616199 -3.0734,-2.717799 l -3.2766,-0.1524 c -1.3716,-0.0508 -1.981199,-0.2794 -1.981199,-0.6858 0,-0.508 0.838199,-1.397 1.523999,-1.6002 0.9144,0.0762 1.397,0.127 1.4478,0.127 0.9398,0 1.9558,-0.381 2.7432,-1.0668 0.8382,-0.7112 1.2192,-1.6002 1.2192,-2.8702 0,-0.7366 -0.127,-1.3208 -0.4826,-2.1336 z m -8.2042,9.906 c 0.8636,0.1778 2.8448,0.3302 4.1402,0.3302 2.286,0 3.1242,0.3302 3.1242,1.244599 0,1.4732 -1.9304,2.4638 -4.8006,2.4638 -2.2606,0 -3.708399,-0.7366 -3.708399,-1.8542 0,-0.5842 0.2286,-0.9652 1.244599,-2.184399 z m 0.127,-8.636 c 0,-1.4986 0.7112,-2.3876 1.8796,-2.3876 0.7874,0 1.4478,0.4318 1.8542,1.1938 0.4826,0.889 0.762,2.032 0.762,3.048 0,1.4224 -0.7112,2.3114 -1.8796,2.3114 -1.5748,0 -2.6162,-1.651 -2.6162,-4.0894 z"
         style="font-family:'Nimbus Roman';-inkscape-font-specification:'Nimbus Roman, Normal'"
         id="path841" />
      <path
         d="m 83.352673,65.158669 h 5.9944 v -0.381 c -1.6002,-0.0762 -1.8796,-0.3302 -1.905,-1.7526 v -15.1638 l -0.1016,-0.0508 c -1.2954,0.4064 -2.2352,0.6858 -4.0386,1.1176 v 0.4064 h 0.1524 c 0.2794,-0.0254 0.5842,-0.0508 0.7874,-0.0508 0.8128,0 1.0668,0.3556 1.0668,1.5494 v 12.1158 c -0.0254,1.3716 -0.381,1.7272 -1.9558,1.8288 z"
         style="font-family:'Nimbus Roman';-inkscape-font-specification:'Nimbus Roman, Normal'"
         id="path843" />
      <path
         d="m 90.28687,65.158669 h 6.0198 v -0.381 c -1.6764,-0.127 -1.8542,-0.3556 -1.8796,-2.2098 v -9.017 l -0.1016,-0.0762 -3.937,1.397 v 0.381 l 0.2032,-0.0254 c 0.3048,-0.0508 0.6096,-0.0762 0.8636,-0.0762 0.6096,0 0.8382,0.4064 0.8382,1.524 v 5.8928 c -0.0508,1.8796 -0.2794,2.1336 -2.0066,2.2098 z m 2.8448,-17.3482 c -0.6858,0 -1.27,0.5842 -1.27,1.2954 0,0.7366 0.5588,1.2954 1.27,1.2954 0.762,0 1.3208,-0.5588 1.3208,-1.2954 0,-0.7366 -0.5842,-1.2954 -1.3208,-1.2954 z"
         style="font-family:'Nimbus Roman';-inkscape-font-specification:'Nimbus Roman, Normal'"
         id="path845" />
      <path
         d="m 108.16847,63.482269 c -0.4318,0.3556 -0.7366,0.4826 -1.1176,0.4826 -0.5842,0 -0.762,-0.3556 -0.762,-1.4732 v -4.953 c 0,-1.3208 -0.127,-2.0574 -0.508,-2.667 -0.5588,-0.9144 -1.651,-1.397 -3.1496,-1.397 -2.3876,0 -4.267204,1.2446 -4.267204,2.8448 0,0.5842 0.4826,1.0922 1.0922,1.0922 0.609604,0 1.143004,-0.508 1.143004,-1.0668 0,-0.1016 -0.0254,-0.2286 -0.0508,-0.4064 -0.0508,-0.2286 -0.0762,-0.4318 -0.0762,-0.6096 0,-0.6858 0.8128,-1.2446 1.8288,-1.2446 1.2446,0 1.9304,0.7366 1.9304,2.1082 v 1.5494 c -3.8862,1.5494 -4.343404,1.778 -5.435604,2.7432 -0.5588,0.508 -0.9144,1.3716 -0.9144,2.2098 0,1.6002 1.1176,2.7178 2.667004,2.7178 1.1176,0 2.159,-0.5334 3.7084,-1.8542 0.127,1.3462 0.5842,1.8542 1.6256,1.8542 0.8636,0 1.397,-0.3048 2.286,-1.27 z m -3.937,-1.4478 c 0,0.762 -0.127,1.0414 -0.6604,1.3462 -0.635,0.3556 -1.3208,0.5588 -1.8542,0.5588 -0.889,0 -1.6002,-0.8636 -1.6002,-1.9558 v -0.1016 c 0.0254,-1.524 1.143,-2.4892 4.1148,-3.5306 z"
         style="font-family:'Nimbus Roman';-inkscape-font-specification:'Nimbus Roman, Normal'"
         id="path847" />
      <path
         d="m 112.10547,47.861269 -0.127,-0.0508 c -1.0414,0.3556 -1.7272,0.5842 -2.9464,0.9144 l -0.7366,0.2032 v 0.4064 c 0.1524,-0.0254 0.2286,-0.0254 0.4318,-0.0254 1.016,0 1.2446,0.2286 1.2446,1.2954 v 13.1826 c 0,0.7874 2.1336,1.6256 4.191,1.6256 3.3528,0 5.9436,-2.794 5.9436,-6.4262 0,-3.1496 -1.9304,-5.5118 -4.4704,-5.5118 -1.5494,0 -3.0226,0.889 -3.5306,2.159 z m 0,9.1186 c 0,-0.9906 1.1938,-1.905 2.5146,-1.905 0.7112,0 1.3462,0.254 1.8796,0.7366 0.8128,0.7874 1.3716,2.5146 1.3716,4.3434 0,2.8194 -1.2192,4.445 -3.302,4.445 -1.3208,0 -2.4638,-0.5588 -2.4638,-1.2192 z"
         style="font-family:'Nimbus Roman';-inkscape-font-specification:'Nimbus Roman, Normal'"
         id="path849" />
      <path
         d="m 127.26927,53.474669 c -3.3274,0 -5.6134,2.4384 -5.6134,5.9436 0,3.4544 2.3622,5.9944 5.5626,5.9944 3.2004,0 5.6388,-2.667 5.6388,-6.1976 0,-3.3528 -2.3368,-5.7404 -5.588,-5.7404 z m -0.3302,0.7112 c 2.1336,0 3.6322,2.4384 3.6322,5.9182 0,2.8956 -1.143,4.5974 -3.048,4.5974 -0.9906,0 -1.9304,-0.6096 -2.4638,-1.6256 -0.7112,-1.3208 -1.1176,-3.0988 -1.1176,-4.9022 0,-2.413 1.1684,-3.9878 2.9972,-3.9878 z"
         style="font-family:'Nimbus Roman';-inkscape-font-specification:'Nimbus Roman, Normal'"
         id="path851" />
      <path
         d="m 141.62027,57.183069 -0.1016,-3.4798 h -0.2794 c -0.127,0.2032 -0.254,0.2794 -0.4064,0.2794 -0.1524,0 -0.4064,-0.0508 -0.6858,-0.1778 -0.5842,-0.2032 -1.1684,-0.3302 -1.778,-0.3302 -2.0066,0 -3.4544,1.3208 -3.4544,3.1496 0,1.4224 0.8128,2.4384 2.9718,3.6576 l 1.4732,0.8382 c 0.889,0.508 1.3208,1.1176 1.3208,1.905 0,1.1176 -0.8128,1.8288 -2.1082,1.8288 -1.7526,0 -2.6416,-0.9652 -3.2258,-3.556 h -0.4064 v 3.9624 h 0.3302 c 0.1778,-0.254 0.2794,-0.3048 0.5842,-0.3048 0.2794,0 0.5842,0.0508 1.1684,0.2032 0.6858,0.1524 1.3462,0.254 1.8542,0.254 1.9812,0 3.5814,-1.4732 3.5814,-3.2512 0,-1.27 -0.6096,-2.1082 -2.1336,-3.0226 l -2.7432,-1.6256 c -0.7112,-0.4318 -1.0922,-1.0414 -1.0922,-1.7272 0,-1.0414 0.7874,-1.7272 1.9558,-1.7272 1.4478,0 2.2098,0.8382 2.794,3.1242 z"
         style="font-family:'Nimbus Roman';-inkscape-font-specification:'Nimbus Roman, Normal'"
         id="path853" />
      <path
         d="m 153.60907,61.196269 c -1.2192,1.778 -2.1336,2.3876 -3.5814,2.3876 -2.3368,0 -3.937,-2.032 -3.937,-4.953 0,-2.6416 1.397,-4.4196 3.4544,-4.4196 0.9144,0 1.2446,0.254 1.4986,1.2192 l 0.1524,0.5588 c 0.2032,0.7366 0.6604,1.1684 1.2192,1.1684 0.6604,0 1.1938,-0.4826 1.1938,-1.0668 0,-1.4224 -1.778,-2.6162 -3.9116,-2.6162 -1.2446,0 -2.54,0.508 -3.5814,1.4224 -1.27,1.1176 -1.9812,2.8448 -1.9812,4.8768 0,3.2766 2.0066,5.6388 4.826,5.6388 1.143,0 2.159,-0.4064 3.0734,-1.1938 0.6858,-0.5842 1.1684,-1.2954 1.9304,-2.794 z"
         style="font-family:'Nimbus Roman';-inkscape-font-specification:'Nimbus Roman, Normal'"
         id="path855" />
      <path
         d="m 166.74086,64.777669 c -1.3716,-0.2286 -1.4986,-0.4064 -1.524,-2.2098 v -5.0546 c 0,-2.667 -1.0414,-4.0386 -3.1242,-4.0386 -1.4986,0 -2.5654,0.6096 -3.7338,2.1336 v -7.7216 l -0.127,-0.0762 c -0.889,0.3048 -1.524,0.508 -2.921,0.9144 l -0.6858,0.2032 v 0.4064 c 0.1016,-0.0254 0.1524,-0.0254 0.3048,-0.0254 1.0922,0 1.2954,0.2032 1.2954,1.2954 v 11.9634 c -0.0508,1.8288 -0.1778,2.032 -1.6256,2.2098 v 0.381 h 5.4864 v -0.381 c -1.4732,-0.127 -1.6764,-0.4064 -1.7272,-2.2098 v -6.1214 c 1.0668,-1.1684 1.8288,-1.6002 2.8448,-1.6002 1.2446,0 1.8796,0.9144 1.8796,2.6924 v 5.0292 c -0.0508,1.8034 -0.2794,2.0828 -1.7272,2.2098 v 0.381 h 5.3848 z"
         style="font-family:'Nimbus Roman';-inkscape-font-specification:'Nimbus Roman, Normal'"
         id="path857" />
      <path
         d="m 167.47746,65.158669 h 6.0198 v -0.381 c -1.6764,-0.127 -1.8542,-0.3556 -1.8796,-2.2098 v -9.017 l -0.1016,-0.0762 -3.937,1.397 v 0.381 l 0.2032,-0.0254 c 0.3048,-0.0508 0.6096,-0.0762 0.8636,-0.0762 0.6096,0 0.8382,0.4064 0.8382,1.524 v 5.8928 c -0.0508,1.8796 -0.2794,2.1336 -2.0066,2.2098 z m 2.8448,-17.3482 c -0.6858,0 -1.27,0.5842 -1.27,1.2954 0,0.7366 0.5588,1.2954 1.27,1.2954 0.762,0 1.3208,-0.5588 1.3208,-1.2954 0,-0.7366 -0.5842,-1.2954 -1.3208,-1.2954 z"
         style="font-family:'Nimbus Roman';-inkscape-font-specification:'Nimbus Roman, Normal'"
         id="path859" />
    </g>
    <text
       xml:space="preserve"
       style="font-size:25.4px;line-height:1.25;font-family:sans-serif;word-spacing:0px;fill:none;stroke-width:0.264583"
       x="41.957432"
       y="65.232391"
       id="text5770"><tspan
         sodipodi:role="line"
         id="tspan5768"
         style="font-size:25.4px;fill:none;stroke-width:0.264583"
         x="41.957432"
         y="65.232391">A</tspan></text>
  </g>
  <g
     inkscape:groupmode="layer"
     id="layer3"
     inkscape:label="Invisible letters">
    <text
       xml:space="preserve"
       style="font-size:25.4px;line-height:1.25;font-family:sans-serif;word-spacing:0px;display:inline;fill:#000000;stroke-width:0.264583;fill-opacity:0"
       x="10.824449"
       y="19.736626"
       id="text5770-7"><tspan
         sodipodi:role="line"
         id="tspan5768-5"
         style="font-size:25.4px;fill:#000000;stroke-width:0.264583;fill-opacity:0"
         x="10.824449"
         y="19.736626">A</tspan></text>
    <text
       xml:space="preserve"
       style="font-size:25.4px;line-height:1.25;font-family:sans-serif;word-spacing:0px;display:inline;fill:#000000;stroke-width:0.264583;fill-opacity:0"
       x="36.056881"
       y="54.789421"
       id="text21661"><tspan
         sodipodi:role="line"
         id="tspan21659"
         style="font-size:25.4px;fill:#000000;fill-opacity:0;stroke-width:0.264583"
         x="36.056881"
         y="54.789421">T</tspan></text>
  </g>
</svg>
